# xmcd
#
# Track frame offsets: 
#        150
#        16849
#        36390
#        50538
#        64662
#        87602
#        104723
#        126056
#        145748
#        161334
#        174885
#        193473
#
# Disc length: 2816 seconds
#
# Revision: 0
# Processed by: cddbd v1.5.2PL0 Copyright (c) Steve Scherf et al.
# Submitted via: ExactAudioCopy v0.95b3
#
DISCID=a70afe0c
DTITLE=Montana Rose - My Time
DYEAR=2007
DGENRE=Country
TTITLE0=Don't Tell Me
TTITLE1=Over You
TTITLE2=Boots
TTITLE3=Me And The Blues
TTITLE4=Your Angels
TTITLE5=My Time
TTITLE6=Smokin' 100's Alone
TTITLE7=I'll Be Here InThe Morning
TTITLE8=She Already Loves Someone
TTITLE9=Is It Enough (I Love You)
TTITLE10=She Sang The Red River Valley
TTITLE11=Amanda Come Home
EXTD=
EXTT0=
EXTT1=
EXTT2=
EXTT3=
EXTT4=
EXTT5=
EXTT6=
EXTT7=
EXTT8=
EXTT9=
EXTT10=
EXTT11=
PLAYORDER=
